<svg width="66" height="643" viewBox="0 0 66 643" fill="none" xmlns="http://www.w3.org/2000/svg">
<path d="M65 1.22553C65 -0.251563 39.5879 5.84125 30.5928 10.3403C21.8753 14.7005 24.8284 19.4969 25.4189 81.4408C25.7654 117.79 26.4484 139.965 25.4189 153.382C25.0849 157.734 24.9244 163.434 24.682 188.454C24.4395 213.474 20.8922 236.738 20.5265 261.393C20.0082 296.325 17.9223 334.442 12.5831 347.684C8.24443 358.444 2.44938 364.18 1.25886 367.892C-1.40703 376.203 17.3228 373.577 20.5265 377.447C23.7121 381.295 22.937 413.266 22.8103 481.349C22.7368 520.779 22.4299 570.119 22.5117 596.792C22.6012 625.98 23.9861 631.12 25.9271 635.564C29.6135 638.593 34.645 640.203 42.1493 640.962C46.9665 641.287 53.8324 641.489 58.7509 642" stroke="white" stroke-width="2" stroke-linecap="round"/>
</svg>
