<svg width="66" height="643" viewBox="0 0 66 643" fill="none" xmlns="http://www.w3.org/2000/svg">
<path d="M0.999997 1.22553C0.999997 -0.251563 26.4121 5.84125 35.4072 10.3403C44.1247 14.7005 41.1716 19.4969 40.5811 81.4408C40.2346 117.79 39.5516 139.965 40.5811 153.382C40.9151 157.734 41.0756 163.434 41.318 188.454C41.5605 213.474 45.1078 236.738 45.4735 261.393C45.9918 296.325 48.0777 334.442 53.4169 347.684C57.7556 358.444 63.5506 364.18 64.7411 367.892C67.407 376.203 48.6772 373.577 45.4735 377.447C42.2879 381.295 43.063 413.266 43.1897 481.349C43.2632 520.779 43.5701 570.119 43.4883 596.792C43.3988 625.98 42.0139 631.12 40.0729 635.564C36.3865 638.593 31.355 640.203 23.8507 640.962C19.0335 641.287 12.1676 641.489 7.24907 642" stroke="white" stroke-width="2" stroke-linecap="round"/>
</svg>
