<svg width="134" height="224" viewBox="0 0 134 224" fill="none" xmlns="http://www.w3.org/2000/svg">
<path d="M32.2336 64.1472C29.5934 64.1472 22.571 65.2149 14.2326 68.2139C7.90262 70.4906 5.0854 80.7826 2.63886 87.4262C1.70154 89.9715 1.54593 92.5917 2.18503 95.0632C3.53409 100.28 9.04028 105.622 13.4193 110.087C19.9578 116.754 36.9107 110.584 41.6597 107.641C46.1 104.889 46.1935 99.5672 46.6304 97.9898C46.9519 96.829 46.365 104.86 46.6678 111.93C46.945 118.399 53.7555 121.021 59.0234 123.614C66.4781 127.283 74.5045 125.891 81.7588 123.627C87.0976 121.961 88.2786 114.622 89.7346 106.821C90.7388 101.44 89.4115 97.1217 87.9436 94.8748C87.1852 93.7138 85.9685 92.8188 85.6865 92.9649C84.3762 93.6438 87.2445 96.8138 89.0556 98.8456C93.4157 103.737 99.9359 104.251 107.149 106.316C112.347 107.803 116.791 106.31 119.101 105.168C124.359 102.566 127.845 96.5991 131.73 86.5034C134.079 80.3986 132.065 75.2623 130.756 72.8311C126.715 65.3249 112.958 62.5283 107.567 61.8473C103.378 61.3182 117.217 57.6656 121.611 54.181C126.684 50.1571 126.815 43.6111 126.735 31.3808C126.686 24.0148 119.804 20.0544 114.898 17.2589C108.694 13.7236 95.8392 15.0014 88.0328 18.3274C85.4963 19.4081 86.4486 23.6881 86.4436 24.8921C86.4177 31.1519 84.934 13.6691 81.8714 9.38087C77.8499 3.74989 63.7652 1.45188 48.6958 1.00594C42.6481 0.826977 39.02 4.73813 36.7026 6.33191C34.3689 7.93683 33.3319 10.516 33.1119 13.1607C32.6075 19.2253 37.5424 27.5897 40.2148 31.8674C41.1721 33.3999 37.4278 27.9529 35.288 26.3082C31.1013 23.0899 20.1985 23.7121 11.8341 25.428C8.07419 26.1994 5.49977 28.9923 3.50646 30.7953C1.51292 32.5985 0.800171 35.9559 1.04693 39.8695C1.47059 46.5886 6.77991 50.4363 10.4249 54.1974C14.693 58.6015 22.1697 60.0319 27.9281 62.3261C29.2656 62.9204 30.6907 63.5539 32.0659 64.0655C33.4412 64.5771 34.7234 64.9477 36.343 65.483" stroke="white" stroke-width="2" stroke-linecap="round"/>
<path d="M75.0685 49.5635C72.8982 49.5635 66.2621 50.2802 61.0699 54.2378C56.671 57.5907 56.323 63.6423 56.5531 69.0256C56.789 74.5429 66.3963 74.6571 76.2584 74.9975C79.6356 75.1141 81.3855 72.1728 82.967 70.1091C87.4875 64.2101 84.5692 55.1841 83.353 53.1117C82.5633 52.182 81.4235 51.4999 79.9531 51.1485C78.4826 50.7971 76.716 50.7971 73.9781 50.216" stroke="white" stroke-width="2" stroke-linecap="round"/>
<path d="M47.25 109.688C47.25 109.783 47.1815 126.515 45.8867 157C44.3164 193.974 39.094 200.651 38.5907 207.351C38.3522 210.086 38.0045 213.241 37.594 217.17C37.4119 219.265 37.283 221.565 36.8438 223" stroke="white" stroke-width="2" stroke-linecap="round"/>
<path d="M44.9375 177.905C46.6265 177.506 52.6105 175.279 58.3857 171.485C71.1372 163.107 83.9141 142.913 87.1383 137.142C87.9941 135.61 88.6407 133.629 89.052 134.02C94.8658 139.544 87.354 149.325 83.747 155.309C80.1361 161.3 71.182 167.188 64.5562 171.629C59.2971 175.239 54.6634 178.254 51.8259 179.693C50.4438 180.34 49.1791 180.818 45.0329 181.376" stroke="white" stroke-width="2" stroke-linecap="round"/>
</svg>
