<svg width="300" height="207" viewBox="0 0 300 207" fill="none" xmlns="http://www.w3.org/2000/svg">
<path d="M3.00327 68.4298C4.25788 74.3925 12.4422 104.973 16.575 116.265C21.9632 130.987 26.507 155.595 31.3299 176.865C33.4895 186.389 38.1135 192.634 44.0527 198.394C48.6001 202.804 65.537 199.351 97.2522 193.345C116.222 189.754 141.092 185.394 161.328 180.88C181.563 176.366 196.426 171.917 211.523 168.077C241.341 160.492 259.377 157.286 265.63 155.649C280.861 151.661 288.368 149.408 294.715 147.135C297.529 146.127 295.896 133.663 291.299 113.218C282.708 75.0028 274.897 57.3838 272.465 48.742C268.434 34.4231 266.978 26.9484 265.051 20.2967C263.927 16.4166 262.39 11.39 260.442 6.92205C259.184 4.03686 250.061 6.88605 222.825 11.6506C201.448 15.3902 164.641 21.2877 144.465 24.7863C115.712 29.7722 105.735 34.0849 76.1192 43.7336C63.3263 47.9015 57.3136 49.5818 51.1482 51.4302C45.4536 53.1375 38.9992 55.1554 27.9937 57.986C19.9905 60.0443 9.86785 66.2903 4.01472 68.2296" stroke="white" stroke-width="2" stroke-linecap="round"/>
<path d="M49.8612 198.948C50.8429 197.571 62.9276 180.394 79.2324 154.764C96.5402 127.557 99.4751 123.827 107.659 113.931C113.518 106.846 112.587 106.067 119.206 103.237M196.266 94.2889C204.466 96.425 227.335 102.676 256.652 113.307C272.653 119.109 279.65 123.982 285.891 127.555C290.627 130.266 294.262 132.7 294.262 132.7" stroke="white" stroke-width="2" stroke-linecap="round"/>
<path d="M3.00349 68.4301C6.11963 67.7542 19.318 65.6461 29.0007 67.6625C42.0133 70.3724 49.2807 74.7749 58.4858 78.0793C72.1871 82.9976 84.6808 87.6595 97.4953 92.4205C105.997 95.579 112.69 99.5368 124.346 106.297C133.987 111.889 146.417 111.978 170.172 107.848C184.334 105.387 188.568 99.0391 199.619 90.0067C207.649 83.4432 215.322 73.4295 230.64 54.4407C240.927 41.6894 246.454 35.9572 251.929 29.0656C255.865 24.1371 258.608 20.3458 260.534 17.6018C261.492 16.2592 262.411 15.0181 263.357 13.7394" stroke="white" stroke-width="2" stroke-linecap="round"/>
</svg>
