<svg width="54" height="54" viewBox="0 0 54 54" fill="none" xmlns="http://www.w3.org/2000/svg">
<path d="M49.5434 27.5275C49.786 25.3504 49.3009 23.4275 48.8978 21.305C48.6441 20.3414 48.1602 19.115 47.6939 17.6334C47.3091 16.4292 47.0002 15.5015 46.7516 14.7848C46.2717 13.564 45.9912 12.6247 45.0207 11.4577C44.6643 11.0304 43.9928 10.4252 43.1958 9.79018C41.0168 8.06409 38.8686 6.22344 37.056 4.8538C36.1618 4.10855 34.5408 4.01283 33.5509 3.97601C32.5617 3.96817 31.9715 3.77152 31.3686 3.52292C30.614 3.20719 29.8724 2.79615 28.0785 2.84454C27.9137 2.8487 27.7513 2.85273 27.5912 2.85625C24.7311 2.95238 22.8754 2.79686 20.4342 3.01545C20.2877 3.03308 20.1276 3.05781 19.9578 3.09315C17.7951 3.52108 13.9432 4.85187 11.0045 6.79731C9.50991 7.64557 8.19959 8.34707 7.45089 8.93053C6.98451 9.28657 6.50766 9.62768 6.05788 9.97492C4.18859 11.4216 2.25324 13.1425 1.11471 14.4491L1.12482 14.4346C1.09108 14.4776 1.05857 14.5198 1.02728 14.5614C0.815924 14.8425 0.652993 15.0717 0.544952 15.3051C0.447191 15.5113 0.372396 15.7121 0.303043 15.8882C0.240493 16.0488 0.164469 16.1154 0.103682 16.1037C0.103642 16.1037 0.103603 16.1036 0.103563 16.1036C0.0283592 16.0888 -0.0243104 15.9549 0.0112733 15.7339C0.0397778 15.5616 0.0721094 15.3734 0.125198 15.1694C0.21319 14.812 0.404022 14.451 0.598782 14.0892C0.600473 14.0868 0.605358 14.0794 0.607171 14.0771C1.04881 13.3519 1.56476 12.5091 2.16718 11.5855C3.20776 10.0142 4.01035 9.32705 5.02931 8.60626C6.00236 7.92937 7.20132 7.34366 9.16298 6.17915C9.55148 5.94482 9.9179 5.71545 10.2623 5.48638C12.9716 3.53719 15.5093 1.92541 19.2605 0.899353C19.9779 0.691819 20.7017 0.585761 21.4571 0.527492C24.1729 0.365791 25.8332 0.228751 27.6935 0.0735495C28.8711 -0.0192851 30.2888 -0.0714488 31.9455 0.21722C33.2114 0.454534 34.547 0.597347 36.6964 1.28627C37.4535 1.54987 38.2166 1.96259 38.7739 2.41168C42.6209 5.65079 44.3203 6.0367 47.879 8.82815C48.8446 9.6718 49.8612 10.9591 50.7119 12.3903C50.7341 12.4271 50.7564 12.4643 50.7788 12.5018C52.1869 15.081 53.3005 17.6223 53.4606 21.1808C53.3642 25.6268 53.4075 29.4458 52.4655 33.4779C52.1206 34.4362 51.8166 35.3673 51.516 36.1811C50.9224 37.8695 49.8607 39.8045 48.4269 41.4381C46.4674 43.6894 44.1551 46.4965 40.9845 48.5634C40.3285 49.0032 39.6704 49.4813 38.9418 49.9852C37.8767 50.7282 36.5497 51.5819 35.0781 52.1369C33.0982 53.1056 29.8223 53.8005 27.2203 53.4862C24.0047 53.1931 20.9607 52.4909 18.0506 51.5279C17.2927 51.2734 16.5238 51.0028 15.7533 50.6797C14.4635 50.1445 13.0229 49.3927 11.7559 48.3708C9.98216 46.9268 8.01977 45.3154 6.58106 43.1316C5.20319 40.9791 3.83962 38.7533 3.29993 36.3979C2.91023 34.644 2.58859 33.0232 2.52332 31.733C2.48389 31.0614 2.49187 30.4535 2.52536 29.9021C2.78323 26.408 2.69433 25.0312 2.94809 20.8821C2.97709 20.6132 3.01463 20.3305 3.08956 20.0228C3.32605 19.1768 3.41859 18.2542 4.08565 17.1765C5.20271 15.5959 6.46856 13.9552 7.66644 12.5144C8.17257 11.911 8.38918 11.699 8.45686 11.8077C8.51546 11.9721 8.35016 12.4411 7.97393 13.1462C6.87103 15.1977 5.69791 16.6933 5.3156 17.8738C5.30366 17.9106 5.29189 17.9469 5.28028 17.9827C5.18201 18.7674 5.25026 19.6905 5.1039 20.5637C5.05159 21.2026 4.92721 22.2286 4.65578 23.6842C4.13884 26.6238 5.05571 28.0596 4.93836 29.7943C4.93587 29.8338 4.93317 29.8724 4.93027 29.9103C4.90437 31.0956 4.31762 31.335 5.62066 35.7658C5.88387 36.6694 6.43677 37.7806 7.34424 39.0951C7.90086 39.9034 8.47896 40.66 9.04059 41.3814C10.4862 43.1684 12.3368 44.3869 13.8858 45.464C15.7886 46.7401 17.6288 47.1621 19.2485 47.6327C19.5145 47.7062 19.7693 47.7742 20.0168 47.8383C21.753 48.2841 24.6022 49.1575 27.5908 49.555C29.8183 49.8388 31.5525 49.6114 33.7102 48.5854C33.8598 48.5233 34.0026 48.4589 34.1441 48.3903C35.3363 47.859 36.7244 46.6925 38.6874 45.2763C41.1728 43.6097 43.3698 41.0857 45.3919 38.7559C46.6721 37.2875 47.3262 35.8749 47.6687 34.7357C47.9789 33.7102 48.2177 32.8584 48.4793 32.1679C48.7891 31.1182 49.2347 30.0432 49.5434 27.5275Z" fill="#D9FE5A"/>
</svg>
