<svg width="85" height="85" viewBox="0 0 85 85" fill="none" xmlns="http://www.w3.org/2000/svg">
<path d="M34.715 3.47947C32.5772 3.47947 24.4625 4.74885 18.0073 7.78698C12.0796 10.5769 9.53066 15.4615 7.47382 18.4347C5.58356 21.1671 4.38073 24.237 2.2102 31.0103C1.32115 33.7846 1.00118 39.4628 1 50.5724C0.998847 61.4515 4.99249 65.0862 6.1571 67.315C7.33381 69.567 14.1613 75.2108 19.1868 78.8383C21.8538 80.7635 24.5174 81.495 28.5879 82.8592C30.1111 83.3696 36.925 83.3512 48.1052 82.9541C61.6731 82.4721 64.1126 79.1445 68.0056 77.2433C71.7744 75.4027 75.2023 71.9602 77.5575 69.3506C79.1592 67.5759 79.7984 64.8655 81.2621 60.3256C81.9976 58.0442 82.4802 53.4071 83.4583 47.8997C83.9585 45.0832 83.9021 39.9631 83.9985 33.0631C84.0804 27.2054 80.7654 21.4267 78.2295 17.3553C76.2755 14.218 73.2615 10.7862 70.6817 8.39974C68.2622 6.16141 64.1908 4.85588 62.0236 3.88357C58.5736 2.33567 54.1776 1.54146 51.9961 1.25971C49.9438 0.99464 42.1502 0.842062 37.2095 1.25628C36.2767 1.53363 35.3427 1.82724 34.4093 2.09618C33.9355 2.21268 33.4615 2.2886 32.3117 2.87192" stroke="white" stroke-width="2" stroke-linecap="round"/>
<path d="M25.3683 63.0052C25.3683 62.9697 25.3832 61.5147 25.6613 58.9814C26.1279 54.7314 31.7371 51.4785 34.6326 49.3312C37.845 46.9489 41.2154 46.8464 45.7174 46.7927C48.5538 46.7588 50.97 48.2922 53.2163 49.2634C55.1618 50.1046 56.6005 51.4782 58.3156 52.8011C60.1287 54.1995 61.0117 55.9962 61.9074 57.7265C62.093 58.1757 62.2442 58.62 62.4159 59.0618C62.5875 59.5036 62.775 59.9295 63.0813 61.3605" stroke="white" stroke-width="2" stroke-linecap="round"/>
<path d="M25.038 17.7154C25.038 19.1795 25.3479 23.2253 25.6868 25.7573C25.9899 28.3069 26.1436 30.1609 26.1664 31.4739C26.1893 32.1174 26.2349 32.7142 26.4205 33.6212" stroke="white" stroke-width="2" stroke-linecap="round"/>
<path d="M53.6434 13.558C53.6434 13.5137 53.6434 17.9495 53.6684 25.0277C53.6934 27.6472 53.7434 28.2926 53.7927 29.0696C53.842 29.8465 53.8891 30.7353 53.9377 31.6511" stroke="white" stroke-width="2" stroke-linecap="round"/>
</svg>
