<svg width="191" height="156" viewBox="0 0 191 156" fill="none" xmlns="http://www.w3.org/2000/svg">
<path d="M100.78 53.3595C95.0048 53.3595 79.1034 55.1061 73.487 58.395C67.9458 61.6398 64.4963 68.6898 62.4109 73.6332C60.3386 78.5453 60.2785 89.6988 61.7158 98.5448C62.6714 104.426 68.8613 107.894 73.7843 112.574C80.2593 118.729 86.0933 119.341 103.704 119.503C114.549 119.602 120.193 114.142 127.589 109.507C133.877 105.566 136.088 97.0804 137.385 91.397C138.642 85.888 138.58 77.077 136.516 69.9006C134.871 64.1838 130.323 59.9025 126.092 57.2445C121.689 54.4779 115.991 54.1071 109.937 53.4039C108.458 53.136 107.13 52.709 105.555 52.4338C103.979 52.1586 102.196 52.0483 100.358 51.9346" stroke="white" stroke-width="2" stroke-linecap="round"/>
<path d="M100.053 35.8868C100.053 35.6949 100.053 29.595 99.9585 19.4405C99.6754 13.163 99.0523 9.0057 98.1829 5.43714C97.7422 3.83748 97.3023 2.6667 96.4614 1" stroke="white" stroke-width="2" stroke-linecap="round"/>
<path d="M149.926 50.2859C151.124 49.5438 160.007 41.3083 167.273 32.4565C168.457 30.8401 169.318 29.6325 170.124 28.2371C170.929 26.8417 171.654 25.2951 173.331 21.6562" stroke="white" stroke-width="2" stroke-linecap="round"/>
<path d="M152.839 100.64C152.839 100.739 159.988 101.012 172.17 101.681C177.202 102.127 179.9 102.791 181.915 103.153C183.929 103.515 185.179 103.555 189.849 104.856" stroke="white" stroke-width="2" stroke-linecap="round"/>
<path d="M121.291 124.494C121.291 124.683 121.291 130.725 121.287 140.446C121.275 145.649 121.563 148.451 122.278 151.065C122.696 152.348 123.229 153.539 123.952 155" stroke="white" stroke-width="2" stroke-linecap="round"/>
<path d="M68.3021 124.645C68.2526 124.645 68.203 124.645 64.9802 128.147C61.7574 131.65 55.3629 138.655 51.5433 142.681C47.7238 146.707 46.673 147.54 44.0781 147.851" stroke="white" stroke-width="2" stroke-linecap="round"/>
<path d="M1 82.6631H51.6581" stroke="white" stroke-width="2" stroke-linecap="round"/>
<path d="M63.9739 51.2892C63.9739 51.1869 63.1118 50.1809 59.3017 46.3182C56.3537 43.4088 51.3459 38.5721 48.3143 35.332C45.2826 32.0919 44.379 30.5948 42.813 27.167" stroke="white" stroke-width="2" stroke-linecap="round"/>
</svg>
