<svg width="32" height="32" viewBox="0 0 32 32" fill="none" xmlns="http://www.w3.org/2000/svg">
<path d="M31.7181 6.35742L22.0132 15.9999L31.7181 25.6423C31.8936 25.2756 32 24.8702 32 24.4374V7.56236C32 7.12942 31.8936 6.72411 31.7181 6.35742Z" fill="white"/>
<path d="M29.1874 4.75H2.81236C2.37942 4.75 1.97411 4.85644 1.60742 5.03188L14.0114 17.3733C15.1081 18.4701 16.8916 18.4701 17.9884 17.3733L30.3923 5.03188C30.0256 4.85644 29.6203 4.75 29.1874 4.75Z" fill="white"/>
<path d="M0.281875 6.35742C0.106438 6.72411 0 7.12942 0 7.56236V24.4374C0 24.8703 0.106438 25.2757 0.281875 25.6423L9.98681 15.9999L0.281875 6.35742Z" fill="white"/>
<path d="M20.6874 17.3257L19.314 18.699C17.4866 20.5264 14.513 20.5264 12.6856 18.699L11.3124 17.3257L1.60742 26.9681C1.97411 27.1436 2.37942 27.25 2.81236 27.25H29.1874C29.6203 27.25 30.0256 27.1436 30.3923 26.9681L20.6874 17.3257Z" fill="white"/>
</svg>
