<svg width="32" height="32" viewBox="0 0 32 32" fill="none" xmlns="http://www.w3.org/2000/svg">
<g clip-path="url(#clip0_1002_128)">
<path d="M29.3333 6.66657H22.6667V5.33319C22.6667 3.8625 21.4707 2.6665 20 2.6665H12C10.5293 2.6665 9.33331 3.86244 9.33331 5.33319V6.6665H2.66669C1.19594 6.66657 0 7.8625 0 9.33319V13.3332C0 14.8039 1.19594 15.9999 2.66669 15.9999H13.3334V15.3332C13.3334 14.9647 13.6316 14.6665 14.0001 14.6665H18.0001C18.3686 14.6665 18.6667 14.9647 18.6667 15.3332V15.9999H29.3334C30.8041 15.9999 32 14.8039 32 13.3332V9.33319C32 7.8625 30.8041 6.66657 29.3333 6.66657ZM20 6.66657H12V5.33319H20V6.66657Z" fill="currentColor"/>
<path d="M31.6302 16.7193C31.403 16.6067 31.1315 16.6328 30.9309 16.7851C30.457 17.1438 29.9049 17.3333 29.3333 17.3333H18.6667V19.3333C18.6667 19.7018 18.3685 20 18 20H14C13.6315 20 13.3333 19.7018 13.3333 19.3333V17.3333H2.66669C2.09506 17.3333 1.543 17.1438 1.069 16.7851C0.867812 16.6315 0.597 16.6054 0.36975 16.7193C0.14325 16.832 0 17.0631 0 17.3164V26.6666C0 28.1373 1.19594 29.3333 2.66669 29.3333H29.3334C30.8041 29.3333 32.0001 28.1374 32.0001 26.6666V17.3164C32 17.0631 31.8568 16.832 31.6302 16.7193Z" fill="currentColor"/>
</g>
<defs>
<clipPath id="clip0_1002_128">
<rect width="32" height="32" fill="currentColor"/>
</clipPath>
</defs>
</svg>
