<svg width="24" height="24" viewBox="0 0 24 24" fill="none" xmlns="http://www.w3.org/2000/svg">
<path fill-rule="evenodd" clip-rule="evenodd" d="M12.2811 4.12361C12.4611 3.94364 12.7053 3.84253 12.9599 3.84253C13.2145 3.84253 13.4586 3.94364 13.6386 4.12361L20.3586 10.8437C20.5386 11.0237 20.6397 11.2678 20.6397 11.5223C20.6397 11.7769 20.5386 12.021 20.3586 12.201L13.6386 18.9211C13.4575 19.0959 13.215 19.1927 12.9633 19.1905C12.7116 19.1883 12.4708 19.0874 12.2929 18.9094C12.1149 18.7314 12.0139 18.4905 12.0117 18.2389C12.0095 17.9872 12.1062 17.7447 12.2811 17.5636L17.3624 12.4823H4.31986C4.06525 12.4823 3.82108 12.3812 3.64104 12.2012C3.46101 12.0211 3.35986 11.777 3.35986 11.5223C3.35986 11.2677 3.46101 11.0236 3.64104 10.8435C3.82108 10.6635 4.06525 10.5623 4.31986 10.5623H17.3624L12.2811 5.48105C12.1011 5.30102 12.0001 5.05688 12.0001 4.80233C12.0001 4.54777 12.1011 4.30364 12.2811 4.12361Z" fill="currentColor"/>
</svg>
